<svg width="127" height="243" viewBox="0 0 127 243" fill="none" xmlns="http://www.w3.org/2000/svg">
<g clip-path="url(#clip0_2086_2464)">
<path d="M109.913 165.869L120.536 147.815L118.69 139.943L105.29 166.048L64.6551 169.962L22.1674 165.869L21.8215 166.265L8.31358 139.943L6.4668 147.815L17.0873 165.869L14.7773 168.646L35.7427 196.664L53.1112 224.661L55.4183 221.42L64.6551 240.864L73.8919 221.42L76.2019 224.661L104.774 178.604L112.223 168.646L109.913 165.869Z" fill="#848484"/>
<path d="M64.655 241.475L55.3742 221.938L53.0965 225.135L52.8884 224.8L35.5198 196.805L14.4431 168.64L16.7677 165.845L6.1853 147.859L6.20875 147.756L8.21969 139.19L21.8771 165.801L22.0559 165.595L22.1908 165.607L64.6785 169.703L105.123 165.801L118.78 139.19L120.815 147.859L120.762 147.95L110.235 165.845L112.56 168.64L104.985 178.763L76.2165 225.138L73.9388 221.94L64.655 241.475ZM55.4651 220.903L64.655 240.25L73.845 220.903L76.1842 224.185L104.548 178.463L111.886 168.654L109.59 165.895L120.252 147.771L118.593 140.698L105.454 166.295L105.311 166.309L64.6755 170.226L22.2728 166.145L21.7628 166.73L8.40437 140.701L6.7452 147.774L17.4067 165.898L15.1114 168.657L35.9507 196.511L53.1229 224.191L55.4621 220.909L55.4651 220.903Z" fill="#848484"/>
<path d="M120.536 88.0965L127 58.0037L119.15 44.5779L123.77 36.2473L114.533 20.506L113.609 12.1725L89.1322 5.22891L80.3585 6.15452L75.7386 8.00575L63.0398 0.60083L70.6585 35.783L112.223 45.5064L118.226 89.0221L120.536 88.0965Z" fill="#848484"/>
<path d="M6.46667 88.0965L0 58.0037L7.85029 44.5778L3.23334 36.2473L12.4702 20.5059L13.3936 12.1725L37.8708 5.22887L46.6444 6.15448L51.2614 8.00572L63.5 0.368652L56.3415 35.783L14.7772 45.5064L8.77368 89.0221L6.46667 88.0965Z" fill="#848484"/>
<path d="M75.7387 8.00572L63.5001 0.368652L51.2615 8.00572H75.7387Z" fill="#848484"/>
<path d="M115.916 129.182L101.022 159.736L94.0951 144.459L71.236 136.822L63.6173 138.905L54.958 136.475L51.4931 139.599L34.8662 144.806L27.5934 158.693L11.4296 135.661L9.23692 113.902L5.77201 109.389L4.03955 99.3184L8.19628 85.4313L13.0448 92.7216L12.353 67.0277L19.2799 63.5544L19.9717 46.8874L32.096 41.3308L40.7553 46.8874L43.5255 47.2342L48.3741 50.7074H51.839L55.3039 54.8742C55.3039 54.8742 60.4983 58.3474 67.7741 56.2641C75.0498 54.1807 75.0469 49.6672 75.0469 49.6672L78.8577 50.014L83.7062 46.194L86.4764 45.8472L94.4439 41.3338L103.449 45.8472L106.565 48.9708L107.603 61.8178L113.838 67.3744L114.53 93.0683L121.111 85.778L123.189 93.7647L124.922 100.362L123.535 107.305L119.033 118.415L115.916 129.179V129.182Z" fill="#E6EEFF"/>
<path d="M22.3989 168.413L34.8691 144.806L52.8796 138.556L59.4606 137.166L63.6173 138.902L71.2361 136.819L94.098 144.456L107.952 168.413L79.5495 212.161L74.701 206.954L64.6551 234.729L55.3039 206.608L49.7606 213.204L22.3989 168.413Z" fill="#FEFFFE"/>
<path d="M69.5563 150.962C68.6153 150.218 67.4486 149.813 66.2497 149.813H64.4322H62.6821C61.4832 149.813 60.3165 150.218 59.3755 150.962L57.2268 152.66L63.7521 156.36C63.969 156.483 64.2153 156.548 64.4644 156.548C64.7136 156.548 64.9598 156.483 65.1768 156.36L71.7021 152.66L69.5533 150.962H69.5563Z" fill="#848484"/>
<path d="M13.0477 92.7246L12.3559 67.0307L19.2828 63.5574L22.5718 47.2401L30.0176 42.3799L39.0229 45.8532L42.4878 45.5064L46.9904 49.3264L50.4553 50.0199L57.7281 56.27L64.3091 57.3102L70.5442 55.2269L75.0468 49.6702L78.8577 50.017L83.7062 46.197L86.4764 45.8502L94.4439 41.3368L106.219 46.8934L107.606 61.8237L113.841 67.3803L114.879 95.1576L119.727 85.7839C119.727 85.7839 117.649 78.8404 120.765 60.7864L115.222 46.5525L117.992 39.6089L111.757 26.4152H108.987L106.908 14.6114L94.784 13.2215L85.4328 10.098L79.5436 10.4447L75.7328 15.3049L63.9574 6.97144L52.5278 14.9582L46.2927 10.098L39.7117 9.05774L32.093 13.918L28.6281 12.8777L19.9687 13.918L17.8904 24.6816L15.1202 27.1117L8.53922 39.2651L11.6553 46.5555L5.76611 59.0557L10.6146 88.9163L13.0389 92.7363L13.0477 92.7246Z" fill="#FEFFFE"/>
<path d="M72.5054 161.817L80.3586 158.229L73.4288 164.479" fill="#E6EEFF"/>
<path d="M50.1065 211.121L55.6498 205.218L46.6446 186.47V199.314L28.634 176.747L50.1065 211.121Z" fill="#D1DAEC"/>
<path d="M82.5512 182.533L75.6243 204.407L78.9719 211.003L89.7096 193.414L83.0114 198.042L86.2447 184.848L79.5494 175.357L82.5512 182.533Z" fill="#D1DAEC"/>
<path d="M89.1321 149.666L103.563 173.738L93.9806 186.699L98.3689 173.277L89.1321 149.666Z" fill="#D1DAEC"/>
<path d="M63.9631 57.3101L69.2748 51.5243L73.6602 38.7919L64.6549 23.747L72.7368 15.8778L71.8134 21.6636L80.8187 41.5688L70.3712 54.0102L63.9631 57.3101Z" fill="#D1DAEC"/>
<path d="M69.9666 147.118L82.3195 153.947L80.1268 157.767L89.8239 152.096L88.323 150.127L84.1663 151.285L69.9666 147.118Z" fill="#D1DAEC"/>
<path d="M44.7976 155.22L58.1882 160.312L54.3481 165.983L63.6993 159.213L47.4535 184.616L51.3786 163.9L44.7976 155.22Z" fill="#D1DAEC"/>
<path d="M69.275 166.794L74.3551 187.51L69.275 205.911L81.7422 182.533L64.6551 226.281L59.1147 212.626L63.2685 217.832L70.7759 189.13L67.0794 180.567L69.275 166.794Z" fill="#D1DAEC"/>
<path d="M95.5987 14.0266L87.6898 20.3326L89.8239 14.7201L85.4385 10.0891L95.5987 14.0266Z" fill="#D1DAEC"/>
<path d="M55.4182 20.9702L45.7211 41.1075L49.8778 48.2833L49.1831 51.0601L45.258 47.819L40.4094 37.4021L47.1047 21.8959L47.263 12.3752L55.4182 20.9702Z" fill="#D1DAEC"/>
<path d="M31.4042 15.8779L22.8592 19.5803L22.6305 27.4495L17.7791 24.4406L19.3972 15.1815L28.4024 12.8689L31.4042 15.8779Z" fill="#D1DAEC"/>
<path d="M26.0923 31.8484L16.3952 33.6996L11.0835 45.5064L8.54492 38.5598L17.087 27.6816L26.0923 31.8484Z" fill="#D1DAEC"/>
<path d="M9.69702 87.4001L11.3152 64.4859L15.2403 60.3192L19.397 47.1255L20.552 63.5603L12.6988 67.2628L13.6251 93.418L9.69702 87.4001Z" fill="#D1DAEC"/>
<path d="M27.2473 43.8843L31.8672 35.783L41.7959 45.5063L40.8725 46.4319L34.4058 43.1908L30.0175 41.3396L27.2473 43.8843Z" fill="#D1DAEC"/>
<path d="M112.454 37.8663L111.991 33.0061L117.995 39.0241L116.148 45.042L112.454 37.8663Z" fill="#D1DAEC"/>
<path d="M105.756 30.9227L99.2924 33.9317L97.4457 39.2562L100.216 44.8099L96.0591 41.5688L87.2854 45.7355L84.7439 46.4319L96.7509 31.8483L105.756 30.9227Z" fill="#D1DAEC"/>
<path d="M107.374 51.2922L117.534 61.4769L119.381 78.373L120.305 56.3845L116.843 49.2088L106.219 46.6611L107.374 51.2922Z" fill="#D1DAEC"/>
<path d="M101.602 15.4136L104.141 20.2738L99.0608 29.7651L109.221 25.137L107.834 14.9523L101.602 15.4136Z" fill="#D1DAEC"/>
<path d="M51.9561 14.2558L63.7315 7.08008L70.4268 11.9432H62.8081L55.1865 18.1904L51.9561 14.2558Z" fill="#D1DAEC"/>
<path d="M69.2749 166.794L79.5495 175.357L81.0474 183.779L70.1983 204.292L74.355 187.51L69.2749 166.794Z" fill="#E6EEFF"/>
<path d="M83.0115 198.042L98.3691 173.277L94.6726 184.848L89.7097 193.414L83.0115 198.042Z" fill="#E6EEFF"/>
<path d="M74.5543 165.983L61.8848 162.163L63.6993 159.213L54.3482 165.983L58.1883 160.312L48.031 156.61L59.1146 158L65.2002 159.213L74.5543 165.983Z" fill="#E6EEFF"/>
<path d="M41.9659 152.79L33.4825 168.067L39.3717 190.634L31.0582 180.567L23.3779 168.413L32.0959 152.79L30.1026 165.29L40.0605 151.488L41.9659 152.79Z" fill="#E6EEFF"/>
<path d="M99.2923 33.9318L101.025 40.2965L116.843 49.2088L107.779 47.4134L100.216 44.8099L97.4456 39.2563L99.2923 33.9318Z" fill="#E6EEFF"/>
<path d="M9.23679 81.6142L8.02319 58.8735L11.6611 47.2401L9.5827 62.5172L14.0853 58.6972L17.5502 52.7967L15.2403 60.3192L11.3152 64.4272L9.23679 81.6142Z" fill="#E6EEFF"/>
<path d="M17.3423 47.4605L26.2098 42.0331L30.0177 34.0464L31.8674 35.783L27.4498 43.6228L17.3423 47.4605Z" fill="#E6EEFF"/>
<path d="M47.263 12.3752L49.4146 22.5893L42.8336 38.2131L45.2579 47.819L37.9851 38.5599L45.6038 23.6325L45.2579 13.5624L41.623 10.0891L47.263 12.3752Z" fill="#E6EEFF"/>
<path d="M21.0122 25.7158V18.7693L28.9798 16.6859L23.4365 20.8527L25.1689 27.7962L21.0122 25.7158Z" fill="#E6EEFF"/>
<path d="M53.9172 28.1459L61.193 19.4657L59.4605 15.299L62.8082 11.9432L54.9579 16.3392L57.4877 20.8644L53.9172 28.1459Z" fill="#E6EEFF"/>
<path d="M67.4251 20.8527L66.7333 23.6324L75.0468 38.9095L69.2748 51.5243L63.9631 57.3102L68.1199 48.6299L70.89 38.2131L64.6549 23.747L67.4251 20.8527Z" fill="#E6EEFF"/>
<path d="M95.3087 31.4429L103.449 27.1028L105.528 21.8958L101.602 15.4136L98.0789 14.6025L93.0574 17.3823L98.2518 17.0356L100.33 21.1994L99.6384 26.4093L95.3087 31.4429Z" fill="#E6EEFF"/>
<path d="M107.779 47.4135L117.535 61.4769L107.606 52.45L107.779 47.4135Z" fill="#E6EEFF"/>
<path d="M50.1064 90.2944L33.1336 84.7378L21.1852 93.9381L29.3257 94.4582L24.8231 101.749L38.6769 105.915L50.4523 102.442L53.9172 104.525L57.728 98.622L59.4605 99.3155L57.0362 106.259L56.3444 109.036C56.3444 109.036 49.7634 109.383 45.6067 112.856L37.988 114.939L31.407 120.146L26.5585 130.216L33.8313 138.55L46.6473 133.69L51.8418 139.246L34.5231 144.453L27.2503 160.424L9.23975 131.606L10.9722 102.442L13.7424 93.9351L12.7047 67.7211L18.9398 63.5544L20.6722 49.6672L31.4099 41.3337L40.2246 45.9471L42.1476 45.5005L43.5342 47.2371L34.5289 53.4872L49.0775 69.111H35.5696L40.0722 76.7481L57.045 87.1649L79.2123 79.8746L94.1067 69.8045L74.7096 72.9281L63.9719 57.3043L69.8611 55.2209L90.2959 59.3876L99.6471 53.4843L99.3012 48.2773L85.7933 54.1807L79.3647 51.3568L84.7526 45.8502L95.2969 42.4298L105.533 46.5466L106.92 62.1704L114.072 66.9101L114.887 92.0281L114.41 94.9107L117.171 105.557L117.672 117.546L109.347 141.676L108.808 145.211L101.382 156.95L94.1096 145.147L72.9801 137.51L78.5234 131.259L86.4909 134.383L99.307 134.73L94.6314 116.156L103.637 119.106L117.836 108.169L114.547 94.1085L99.307 84.7348L92.0342 84.3881L83.7208 90.6382L72.4642 90.2915L85.9721 84.5615L58.0886 89.2483L50.1211 90.2885L50.1064 90.2944Z" fill="#D1DAEC"/>
<path d="M119.323 107.828L123.652 98.857L121.228 95.1546L119.381 99.2067L120.536 104.067L115.571 96.4269L116.957 91.22L114.416 94.9224L119.323 107.828Z" fill="#D1DAEC"/>
<path d="M63.4238 137.377C63.4238 137.377 66.1852 137.754 67.9411 135.617C69.697 133.481 69.3218 133.355 71.8311 133.604C71.8311 133.604 72.5434 133.731 73.2118 132.641C73.8801 131.55 73.0857 130.587 71.79 130.88C70.4944 131.174 68.8205 133.478 67.9001 134.695C66.9796 135.911 66.8096 137.21 63.4238 137.377Z" fill="#848484"/>
<path d="M70.5588 124.924C70.5588 124.924 72.4818 123.373 74.4898 125.009C76.4979 126.646 77.2747 128.694 77.2747 128.694C77.2747 128.694 79.2387 131.63 74.6393 134.562C74.6393 134.562 76.5623 133.681 77.6909 132.047C78.8195 130.413 77.7935 127.692 76.747 126.223C75.7005 124.754 74.4898 122.952 72.0216 123.414C72.0216 123.414 70.852 123.916 70.5588 124.924Z" fill="#848484"/>
<path d="M63.5527 137.377C63.5527 137.377 60.7913 137.754 59.0354 135.617C57.2795 133.481 57.6547 133.355 55.1454 133.604C55.1454 133.604 54.4331 133.731 53.7647 132.641C53.0964 131.55 53.8908 130.587 55.1865 130.88C56.4821 131.174 58.156 133.478 59.0764 134.695C59.9969 135.911 60.1669 137.21 63.5527 137.377Z" fill="#848484"/>
<path d="M57.8014 124.663C57.8014 124.663 55.8784 123.111 53.8704 124.748C51.8623 126.385 50.8188 128.186 50.8188 128.186C50.8188 128.186 48.8254 131.453 53.4248 134.389C53.4248 134.389 51.5282 133.175 50.3996 131.539C49.271 129.902 50.5667 127.431 51.6132 125.964C52.6597 124.498 53.8703 122.694 56.3386 123.155C56.3386 123.155 57.5082 123.655 57.8014 124.663Z" fill="#848484"/>
<path d="M45.979 134.736L51.0621 140.466L58.3085 137.862L63.8166 140.292L70.7435 137.515L94.8161 144.459L73.6866 136.472L78.1892 132.652L92.3889 139.076L74.2055 115.465L70.0487 125.709C70.0487 125.709 71.5203 122.844 74.0325 124.145C76.5447 125.447 79.6608 130.307 76.6297 132.999C73.2821 135.97 70.9135 135.168 69.6149 135.082C68.3163 134.997 67.4515 136.037 67.4515 136.037C63.4677 139.249 59.7449 136.037 59.7449 136.037C58.1003 134.909 58.4463 136.126 56.022 135.864C53.5977 135.603 50.3058 131.524 50.3058 131.524C49.9335 129.875 50.6517 126.749 52.645 124.927C54.6384 123.105 56.9747 123.972 56.9747 123.972L58.9651 125.362C58.9651 125.362 57.7515 121.977 57.0597 120.587C56.3679 119.197 58.6192 114.51 58.6192 114.51C59.6569 113.12 58.7922 110.605 58.7922 110.605C57.1476 108.61 58.1854 103.835 58.1854 103.835L55.934 109.042L57.6665 111.733C58.8801 113.035 57.6665 113.643 57.6665 113.643L48.2274 118.592L48.5469 127.272L45.9761 134.736H45.979Z" fill="#848484"/>
<path d="M15.1524 94.1996L8.48349 84.9111L4.32676 90.8145L4.15381 102.88L6.40512 96.1096L8.04964 107.74L10.4739 111.56L12.3793 100.623L7.01192 94.0262L8.57143 87.8643L13.247 98.6279L15.1524 94.1996Z" fill="#848484"/>
<path d="M5.27954 108.522L5.54044 110.778L7.44585 113.382L10.216 119.805L10.5619 113.47L5.27954 108.522Z" fill="#848484"/>
<path d="M115.597 92.8098C115.858 92.8098 120.36 84.5645 120.36 84.5645L123.304 87.688L125.121 100.535L123.216 103.747L123.389 99.3185L121.483 96.1949L119.839 99.3185L121.483 105.134L119.32 107.825L120.273 105.395L117.933 98.7984L120.185 92.6364L119.405 90.1181L115.597 92.8098Z" fill="#848484"/>
<path d="M119.581 112.427L123.737 106.7L119.754 116.335L119.581 112.427Z" fill="#848484"/>
<path d="M78.2773 173.277L84.0785 182.824L64.5965 242.369L64.1362 225.702L81.0475 183.779L78.2773 173.277Z" fill="#848484"/>
<path d="M74.2934 208.864L78.0163 216.328L109.016 168.587L94.8162 144.456L71.8691 136.907L94.1243 146.108L105.554 168.413L78.969 208.95L76.0259 203.308L74.2934 208.864Z" fill="#848484"/>
<path d="M86.5905 150.448L89.0998 147.929L98.7998 165.29L88.8418 151.488L86.9364 152.79L69.9636 146.889L86.5905 150.448Z" fill="#848484"/>
<path d="M65.2002 159.213L74.5543 165.983L73.5136 163.118L84.6852 154.873L72.6489 160.43L65.2002 159.213Z" fill="#848484"/>
<path d="M42.3118 150.448L39.8025 147.929L30.1025 165.29L40.0605 151.488L41.9659 152.79L58.9387 146.889L42.3118 150.448Z" fill="#848484"/>
<path d="M50.6545 173.277L44.8533 182.824L64.6549 242.369L64.2474 224.747L47.8843 183.779L50.6545 173.277Z" fill="#848484"/>
<path d="M54.6385 208.864L50.9126 216.328L19.9131 168.587L34.1157 144.456L57.0627 136.907L53.3985 139.596L35.7339 146.713L23.378 168.413L49.9599 208.95L52.906 203.308L54.6385 208.864Z" fill="#848484"/>
<path d="M111.587 104.008L103.1 99.004L109.16 94.8108C109.16 94.8108 109.18 94.8108 109.189 94.8108L97.5864 90.5589L105.794 94.5023L105.736 94.5552L103.813 94.5905L103.994 94.467L89.4459 90.8204L90.3986 91.8606C90.3986 91.8606 83.2987 95.6806 79.315 97.5906C75.3312 99.5006 71.1745 98.3723 71.1745 98.3723L69.0697 92.5424L68.9935 91.9135L77.2952 94.1203L88.7248 88.74L91.4363 88.5666L88.2059 87.5264L84.741 89.4364L80.3527 89.0897L91.8701 81.7112L72.4467 89.9565L68.4629 87.5264L60.4954 86.8329L66.3464 90.3767L65.3439 101.417L67.4223 99.3331L71.2331 104.54L69.1547 108.36L70.3683 114.61L73.6574 107.84L72.9655 105.237L87.3411 112.353L86.9952 108.533L97.2141 111.137L111.59 104.02L111.587 104.008Z" fill="#848484"/>
<path d="M57.9275 93.3328L59.6599 88.9045L54.8114 84.9993L51.8389 89.7743L46.8175 88.7311L51.8389 90.9879L54.785 89.9477L55.9957 91.1612L55.8227 97.4114L51.666 94.8079L48.0311 95.1546L43.0066 93.418L35.7338 89.0779L22.2318 93.9351L28.3995 86.2129L39.829 82.7426L27.1888 83.436L18.7024 96.5445L27.4468 96.3711L21.0387 104.355L25.8022 103.661L36.0797 106.958L46.2986 105.398L48.377 103.488L50.2824 104.008L45.7797 107.308L45.085 109.391H40.0635L37.1204 111.472L41.2155 110.952L45.085 111.299L42.8337 113.035L38.504 113.382L31.4042 120.152L40.7553 114.945L46.2986 113.905L49.0688 110.952L51.1471 107.828L52.906 107.393L55.5911 105.83L58.1004 99.6681L58.9417 101.405L59.9208 99.3214L57.9275 93.3328Z" fill="#848484"/>
<path d="M100.84 155.669L104.557 142.423L109.3 146.701L112.891 125.224H116.174L117.957 105.495L117.177 102.489L118.484 105.198L122.318 137.554L117.007 135.162L118.921 148.165L105.955 163.615L100.84 155.669Z" fill="#FEFFFE"/>
<path d="M118.305 110.388L121.372 136.261L118.64 135.033L116.016 133.851L116.435 136.705L118.088 147.932L106.037 162.293L101.69 155.543L104.968 143.86L107.703 146.325L109.837 148.25L110.311 145.411L113.554 126.014H116.892L117.021 124.577L118.302 110.388M114.401 94.9137L117.162 105.56L115.459 124.434H112.226L108.761 145.15L104.144 140.983L99.9871 155.796L105.876 164.937L119.756 148.397L118.001 136.467L123.268 138.838L119.255 104.966L114.404 94.9049L114.401 94.9137Z" fill="#848484"/>
<path d="M104.604 158.925L107.952 152.79L110.262 155.566L116.494 141.1L117.766 148.161L106.565 162.163L104.604 158.925Z" fill="#D1DAEC"/>
<path d="M10.4622 148.176L12.3764 135.162L7.0647 137.554L10.9019 105.198L12.2064 102.489L11.4266 105.495L13.2089 125.224H16.495L20.086 146.701L24.829 142.423L28.5372 155.646L22.7858 163.638L10.4622 148.176Z" fill="#FEFFFE"/>
<path d="M11.0778 110.388L12.3589 124.577L12.4879 126.014H15.8267L19.0688 145.411L19.5437 148.25L21.6778 146.325L24.4128 143.86L27.6784 155.493L22.7565 162.331L11.2918 147.95L12.9481 136.699L13.3673 133.845L10.7437 135.027L8.0116 136.255L11.0778 110.382M14.9854 94.9137L10.1339 104.975L6.12085 138.847L11.3886 136.475L9.63267 148.405L22.8181 164.946L29.3991 155.805L25.2424 140.992L20.6254 145.158L17.1605 124.442H13.9272L12.224 105.569L14.9854 94.9225V94.9137Z" fill="#848484"/>
<path d="M21.1295 167.605L9.63257 148.402L23.6681 164.364L21.1295 167.605Z" fill="#848484"/>
<path d="M108.23 167.605L119.727 148.402L105.692 164.364L108.23 167.605Z" fill="#848484"/>
<path d="M118.918 145.731L116.696 135.171L124.057 139.337L121.715 144.242L120.642 146.487L118.918 145.731Z" fill="#848484"/>
<path d="M10.6233 143.88L12.5258 135.171L5.16797 139.337L7.57172 144.374L10.6233 143.88Z" fill="#848484"/>
<path d="M115.744 64.4271L107.603 61.8236L107.776 47.4134L107.691 47.381L109.714 47.4574L102.373 45.1184C101.365 44.7981 100.427 44.2898 99.6061 43.6198L93.5294 38.6538L95.2618 41.1104L86.7549 45.9471L96.6953 43.1379L97.0646 43.6639C98.5743 45.806 100.996 47.1195 103.61 47.2194L105.698 64.5946L113.838 67.3714L113.146 96.1889L117.159 105.554L114.879 95.1487L115.744 64.4212V64.4271Z" fill="#848484"/>
<path d="M122.846 58.0036L112.601 37.9045L118.115 57.6863L119.279 82.1901L122.846 58.0036Z" fill="#848484"/>
<path d="M11.3152 64.4271L19.4557 61.8236L19.2827 47.4134L19.3677 47.381L17.3451 47.4574L24.6853 45.1184C25.6937 44.7981 26.6318 44.2898 27.4525 43.6198L33.5293 38.6538L31.7969 41.1104L40.3038 45.9471L30.3634 43.1379L29.9941 43.6639C28.4844 45.806 26.0631 47.1195 23.4483 47.2194L21.3611 64.5946L13.2206 67.3714L14.9824 93.941L12.0099 104.637L13.2528 92.9008L11.3181 64.4212L11.3152 64.4271Z" fill="#848484"/>
<path d="M65.165 6.16622L75.7385 14.2558L80.0213 9.6718L84.0549 8.76382C86.7635 8.29073 89.5278 9.18696 91.445 11.1616L94.0715 12.9629L85.4385 10.0891L79.7956 12.3752L74.4018 22.0574L82.7446 41.989L76.8349 49.4762L79.8982 49.1471L95.3115 31.4399L108.834 24.1731L107.43 18.3109C107.116 17.0062 106.061 16.0101 104.745 15.7779L98.0846 14.5996L87.6928 20.3296L97.2169 11.1293L107.16 13.8591C108.726 14.2881 109.76 15.775 109.623 17.397L109.06 24.0526C110.731 23.1564 112.809 23.8176 113.659 25.516L120.252 38.7303L116.268 44.6336L118.001 39.6L109.514 29.7062L98.2575 32.6565L79.3793 52.447L74.9207 51.9063L71.0659 56.7871L63.966 57.3072L70.3741 54.0103L79.8982 41.1633L69.5738 20.8615L73.4901 14.2529L65.3233 9.65711C64.3148 9.08999 63.0895 9.08117 62.0723 9.6336L53.5742 14.2529L57.4905 20.8615L47.1662 41.1633L56.6903 54.0103L63.0983 57.3072L55.9985 56.7871L52.1437 51.9063L47.685 52.447L28.8068 32.6565L17.5502 29.7062L9.06382 39.6L10.7963 44.6336L6.8125 38.7303L13.4052 25.516C14.2524 23.8176 16.3337 23.1535 18.0046 24.0526L17.4418 17.397C17.304 15.7779 18.3417 14.2911 19.9041 13.8591L29.8474 11.1293L39.3716 20.3296L28.9797 14.5996L22.3196 15.7779C21.0005 16.0101 19.9452 17.0062 19.6344 18.3109L18.2303 24.1731L31.7529 31.4399L47.1662 49.1471L50.2295 49.4762L44.3198 41.989L52.6625 22.0574L47.2688 12.3752L41.6258 10.0891L32.5004 13.6211L35.6194 11.1616C37.5365 9.18696 40.3008 8.28779 43.0094 8.76382L46.3893 9.35739L51.5369 13.3596L62.2482 6.2338C62.2482 6.2338 63.6201 4.94088 65.1679 6.16916L65.165 6.16622Z" fill="#848484"/>
<path d="M4.21533 58.0036L14.4576 37.9045L8.02322 58.8734L10.2745 91.3346L4.21533 58.0036Z" fill="#848484"/>
<path d="M12.007 123.972L10.852 133.578L14.4312 132.652L15.5862 152.675L11.6611 147.583L13.5079 133.695L8.42773 135.779L11.0836 115.292L12.007 123.972Z" fill="#D1DAEC"/>
<path d="M30.1025 165.29L32.0959 153.136L35.7338 146.713L58.3055 137.859L63.8459 140.407L52.9938 140.868L41.45 146.889L50.2823 148.796L43.0066 150.88L39.8905 148.623L30.1025 165.29Z" fill="#D1DAEC"/>
<path d="M15.126 127.099L12.007 126.402L10.8521 133.578L14.4313 132.652L15.5863 152.675L16.5097 136.126L15.126 127.099Z" fill="#E6EEFF"/>
<path d="M114.879 132.999L110.376 149.319L106.911 146.889L103.795 156.61L104.604 158.925L107.952 152.79L110.262 155.566L116.494 141.1" fill="#E6EEFF"/>
<path d="M75.592 102.445L84.8582 96.6297C84.8582 96.6297 89.3608 94.0262 93.1716 96.0215C96.9825 98.0167 100.359 99.8415 100.359 99.8415L92.2189 103.573C92.2189 103.573 88.4081 105.31 80.6165 103.573L75.592 102.445Z" fill="#FEFFFE"/>
<path d="M45.979 96.5446C45.979 96.5446 52.56 100.623 53.5127 102.707L54.3775 100.45C54.3775 100.45 51.6923 97.4114 45.979 96.5446Z" fill="#E6EEFF"/>
<path d="M29.9266 99.2097C29.9266 99.2097 34.1156 95.5895 41.9952 97.4966C49.8748 99.4036 51.1734 102.53 51.1734 102.53C51.1734 102.53 49.183 101.837 47.4505 102.965C45.7181 104.093 38.2723 104.702 33.8547 103.573C29.4371 102.445 27.2737 101.49 27.2737 101.49L29.9266 99.2097Z" fill="#FEFFFE"/>
</g>
<defs>
<clipPath id="clip0_2086_2464">
<rect width="127" height="242" fill="white" transform="translate(0 0.368652)"/>
</clipPath>
</defs>
</svg>
