<svg width="487" height="259" viewBox="0 0 487 259" fill="none" xmlns="http://www.w3.org/2000/svg">
<path d="M458.385 220.472H22.1628V26.4952H458.385V220.472Z" stroke="#E6EEFF"/>
<path d="M405.71 0.393066V258.393" stroke="#E6EEFF" stroke-dasharray="4 4"/>
<path d="M486.458 75.2328L3.02792e-05 75.2328" stroke="#E6EEFF" stroke-dasharray="4 4"/>
<path d="M486.458 171.736L3.02792e-05 171.736" stroke="#E6EEFF" stroke-dasharray="4 4"/>
<path d="M74.8411 0.393066V258.393" stroke="#E6EEFF" stroke-dasharray="4 4"/>
<path d="M382.646 138.788L392.727 110.592H405.147L398.05 90.452C390.953 75.6827 377.646 75.2351 377.646 75.2351H349.258L332.967 124.466H355.589L351.153 139.235L375.106 171.459H405.712L382.203 139.235L382.646 138.788Z" fill="#848484"/>
<path d="M236.756 75.2351H196.053L184.483 111.04H196.498L176.918 171.459H205.162C218.512 171.459 222.517 158.033 222.517 158.033L228.747 139.235H218.067L236.756 75.2351Z" fill="#848484"/>
<path d="M336.601 75.2351H300.008L291.976 102.855L272.787 75.6806H252.259L241.549 111.319H253.598L234.409 171.459H261.184C267.878 171.459 273.679 167.45 275.464 160.768L281.266 143.84L300.008 171.014H338.833L316.966 138.939L336.601 75.2351Z" fill="#848484"/>
<path d="M181.162 75.6819H102.102C94.9149 75.6819 88.626 80.1491 85.9308 86.8498L77.3959 111.419H89.5244L75.5991 153.857C75.5991 153.857 74.2515 158.324 75.1499 161.898C76.0483 165.918 79.1927 172.619 88.626 172.619H135.343C160.499 172.619 164.991 157.877 164.991 157.877L171.729 139.115H160.499L181.611 75.2352L181.162 75.6819ZM137.589 131.074C137.589 131.074 134.894 139.562 126.359 139.562H110.188C109.289 139.562 107.043 139.562 107.043 136.435C107.043 135.542 107.942 133.308 107.942 133.308L114.68 111.419H142.98L137.14 130.628L137.589 131.074Z" fill="#848484"/>
</svg>
