<svg width="187" height="82" viewBox="0 0 187 82" fill="none" xmlns="http://www.w3.org/2000/svg">
<g clip-path="url(#clip0_2265_211)">
<mask id="mask0_2265_211" style="mask-type:luminance" maskUnits="userSpaceOnUse" x="-18" y="-16" width="223" height="119">
<path d="M194.041 -15.3545L-17.2688 8.71606L-6.60158 102.321L204.708 78.2504L194.041 -15.3545Z" fill="white"/>
</mask>
<g mask="url(#mask0_2265_211)">
<path d="M3.58598 24.7369C18.4313 23.158 35.5928 21.3685 49.9117 23.158C54.1231 23.6843 55.3865 30.3159 50.9645 29.7896C47.4901 29.3685 43.8051 29.158 40.1201 29.0527C43.1734 42.8422 45.4897 56.8422 47.069 70.8422C47.3848 73.2633 35.277 74.2106 34.9611 71.579C33.3818 57.3685 31.0655 43.2633 27.907 29.2633C20.6423 29.6843 13.2723 30.4211 6.53398 31.158C1.69084 31.6843 -0.730734 25.158 3.58598 24.6317V24.7369Z" fill="#848484"/>
<path d="M131.192 57.0527C124.98 56.6316 117.821 57.579 112.135 60.3158C110.346 61.7895 104.976 61.6842 105.081 59.6842C105.608 47.3685 110.767 34.3158 115.926 22.6316C116.873 20.5263 124.454 20.7369 123.296 23.1579C119.084 32.6316 114.978 42.9474 113.399 53.0527C116.873 51.8948 120.558 51.2632 124.138 51.0527C122.453 43.579 124.243 35.3684 126.981 28.1053C127.823 26 135.298 26.1053 134.351 28.6316C131.508 36.1053 129.613 45.1579 132.35 52.7369C133.298 54.5263 133.193 57.2632 131.087 57.0527H131.192Z" fill="#848484"/>
<path d="M149.301 55.7896C141.405 55.3685 132.456 56.1054 125.296 58.4212C123.085 59.6843 116.242 59.4738 116.242 57.8948C116.452 47.2633 122.454 36.1054 128.56 26.0001C129.613 24.2106 139.299 24.4212 137.931 26.5264C132.982 34.7369 128.139 43.4738 126.56 52.2106C130.876 51.2633 135.509 50.7369 140.142 50.5264C137.72 44.1054 139.72 37.0527 142.879 30.7369C143.827 28.9475 153.408 29.0527 152.249 31.2633C148.986 37.6843 146.88 45.4738 150.67 52.0001C152.039 53.579 151.934 55.8948 149.301 55.6843V55.7896Z" fill="#848484"/>
<path d="M159.093 30.7369C165.41 30.3158 172.254 28.4211 177.307 25.0527C178.781 23.3684 184.151 22.7369 184.467 24.6316C186.467 36.7369 184.046 50.2106 181.414 62.3158C180.887 64.5263 173.412 65.3684 173.938 62.7369C176.149 52.8421 178.044 42.3158 177.623 32.2105C174.465 33.7895 170.885 34.9474 167.305 35.6842C170.569 42.7369 170.464 51.0527 169.2 58.5263C168.885 60.7369 161.304 61.579 161.725 58.9474C162.989 51.2632 162.989 42.1053 158.777 35.0527C157.408 33.3684 156.987 30.7369 159.093 30.6316V30.7369Z" fill="#848484"/>
<path d="M164.778 45.0527C164.778 45.0527 162.778 47.7896 169.2 49.8948C168.358 56.2106 168.99 59.6843 168.147 66.0001C168.779 67.8948 166.147 71.579 164.252 70.7369C158.672 68.0001 151.828 66.4212 145.3 65.7896C142.142 65.4738 144.774 59.7896 147.301 60.0001C151.933 60.5264 156.566 61.2633 160.988 62.6317C161.514 58.6317 162.041 54.6317 162.567 50.6317L164.778 45.0527Z" fill="#848484"/>
<path d="M88.3409 27.158C108.872 33.6843 102.87 64.1053 89.4991 75.0527C80.5498 82.4211 62.2301 83.8948 60.8614 71.3685C60.5455 68.4211 70.2318 67.158 70.6529 70.1053C72.3375 84.9474 85.7088 69.3685 88.0251 64.2106C91.6048 56.1053 95.5004 38.5264 85.0771 32.7369C76.5489 28.0001 64.7569 34.1053 63.1777 41.8948C62.3354 46.1053 63.5988 51.4738 66.3362 54.9474C67.9155 56.9474 70.5477 58.5264 73.2851 59.2632C72.1269 56.6317 71.2847 53.7895 70.7582 50.9474C70.2318 48.0001 79.9181 46.7369 80.5498 49.6843C81.2868 53.4738 82.2344 56.8422 84.2348 60.3159C85.1824 61.7895 82.8661 63.0527 81.1815 63.3685C69.1789 66.0001 57.9134 61.8948 54.4389 52.3159C48.7535 36.4211 68.6525 20.9474 88.3409 27.158ZM78.3388 60.7369C78.1282 58.6317 76.7595 56.5264 74.9697 54.5264C72.5481 51.7895 78.3388 46.7369 81.1815 49.8948C83.8137 52.8422 85.1824 55.8948 85.4982 59.0527C85.7088 60.8422 83.8137 62.6317 81.9185 63.0527C79.9181 63.4738 78.4441 62.4211 78.3388 60.7369Z" fill="#848484"/>
<path d="M78.4442 9.05265C78.4442 8.84213 78.4442 9.26318 78.2336 9.57897C78.023 10.3158 77.8125 11.0527 77.4966 11.7895C76.7596 14.4211 76.1279 17.0527 75.6015 19.7895C75.1803 22.2105 67.4945 22 67.9156 19.7895C68.6526 15.8948 69.6002 12 71.0742 8.21055C71.9165 6.10528 79.3918 6.52634 78.3389 9.15791L78.4442 9.05265Z" fill="#848484"/>
<path d="M82.9715 12.8422C84.4455 10.6316 84.9719 8.00005 85.0772 5.05268C85.0772 1.15794 94.237 -0.52627 94.1317 4.00005C94.1317 8.31584 92.763 11.8948 90.552 15.0527C89.2886 16.8422 86.2353 17.579 84.2349 16.9474C82.2344 16.3158 81.8133 14.4211 82.9715 12.7369V12.8422Z" fill="#848484"/>
</g>
</g>
<defs>
<clipPath id="clip0_2265_211">
<rect width="187" height="82" fill="white"/>
</clipPath>
</defs>
</svg>
