<svg width="31" height="31" viewBox="0 0 31 31" fill="none" xmlns="http://www.w3.org/2000/svg">
<path d="M10.3125 24.375C10.3125 24.25 10.1875 24.125 10 24.125C9.8125 24.125 9.6875 24.25 9.6875 24.375C9.6875 24.5 9.8125 24.625 10 24.5625C10.1875 24.5625 10.3125 24.5 10.3125 24.375ZM8.375 24.0625C8.4375 23.9375 8.625 23.875 8.8125 23.9375C9 24 9.0625 24.125 9.0625 24.25C9 24.375 8.8125 24.4375 8.6875 24.375C8.5 24.375 8.375 24.1875 8.375 24.0625ZM11.1875 24C11.3125 23.9375 11.5 24.0625 11.5 24.1875C11.5625 24.3125 11.4375 24.375 11.25 24.4375C11.0625 24.5 10.875 24.4375 10.875 24.3125C10.875 24.125 11 24 11.1875 24ZM15.25 0C23.9375 0 31 6.625 31 15.25C31 22.1875 26.75 28.125 20.5 30.1875C19.6875 30.375 19.375 29.875 19.375 29.4375C19.375 28.9375 19.4375 26.3125 19.4375 24.25C19.4375 22.75 18.9375 21.8125 18.375 21.3125C21.875 20.9375 25.5625 20.4375 25.5625 14.4375C25.5625 12.6875 24.9375 11.875 23.9375 10.75C24.0625 10.3125 24.625 8.6875 23.75 6.5C22.4375 6.0625 19.4375 8.1875 19.4375 8.1875C18.1875 7.8125 16.875 7.6875 15.5 7.6875C14.1875 7.6875 12.875 7.8125 11.625 8.1875C11.625 8.1875 8.5625 6.125 7.3125 6.5C6.4375 8.6875 6.9375 10.3125 7.125 10.75C6.125 11.875 5.625 12.6875 5.625 14.4375C5.625 20.4375 9.1875 20.9375 12.6875 21.3125C12.1875 21.75 11.8125 22.4375 11.6875 23.4375C10.75 23.875 8.5 24.5625 7.125 22.125C6.25 20.625 4.6875 20.5 4.6875 20.5C3.1875 20.5 4.625 21.5 4.625 21.5C5.625 21.9375 6.3125 23.75 6.3125 23.75C7.25 26.5625 11.625 25.625 11.625 25.625C11.625 26.9375 11.625 29.0625 11.625 29.5C11.625 29.875 11.375 30.375 10.5625 30.25C4.3125 28.125 0 22.1875 0 15.25C0 6.625 6.625 0 15.25 0ZM6.0625 21.5625C6.125 21.5 6.25 21.5625 6.375 21.625C6.5 21.75 6.5 21.9375 6.4375 22C6.3125 22.0625 6.1875 22 6.0625 21.9375C6 21.8125 5.9375 21.625 6.0625 21.5625ZM5.375 21.0625C5.4375 21 5.5 21 5.625 21.0625C5.75 21.125 5.8125 21.1875 5.8125 21.25C5.75 21.375 5.625 21.375 5.5 21.3125C5.375 21.25 5.3125 21.1875 5.375 21.0625ZM7.375 23.3125C7.5 23.1875 7.6875 23.25 7.8125 23.375C7.9375 23.5 7.9375 23.6875 7.875 23.75C7.8125 23.875 7.625 23.8125 7.5 23.6875C7.3125 23.5625 7.3125 23.375 7.375 23.3125ZM6.6875 22.375C6.8125 22.3125 6.9375 22.375 7.0625 22.5C7.125 22.625 7.125 22.8125 7.0625 22.875C6.9375 22.9375 6.8125 22.875 6.6875 22.75C6.5625 22.625 6.5625 22.4375 6.6875 22.375Z" fill="#131313"/>
</svg>
