<svg width="28" height="29" viewBox="0 0 28 29" fill="none" xmlns="http://www.w3.org/2000/svg">
<path d="M26 0.5C27.0625 0.5 28 1.4375 28 2.5625V26.5C28 27.625 27.0625 28.5 26 28.5H1.9375C0.875 28.5 0 27.625 0 26.5V2.5625C0 1.4375 0.875 0.5 1.9375 0.5H26ZM8.4375 24.5V11.1875H4.3125V24.5H8.4375ZM6.375 9.3125C7.6875 9.3125 8.75 8.25 8.75 6.9375C8.75 5.625 7.6875 4.5 6.375 4.5C5 4.5 3.9375 5.625 3.9375 6.9375C3.9375 8.25 5 9.3125 6.375 9.3125ZM24 24.5V17.1875C24 13.625 23.1875 10.8125 19 10.8125C17 10.8125 15.625 11.9375 15.0625 13H15V11.1875H11.0625V24.5H15.1875V17.9375C15.1875 16.1875 15.5 14.5 17.6875 14.5C19.8125 14.5 19.8125 16.5 19.8125 18V24.5H24Z" fill="#131313"/>
</svg>
